<svg height="160" width="160" xmlns="http://www.w3.org/2000/svg"><g fill="none" fill-rule="evenodd"><path d="M0 0h160v160H0z" fill="#fff"/><path d="M108.14 5h1.005c.956.301 1.83 1.041 1.966 2.087 4.746 16.807 9.671 33.567 14.377 50.386-4.225 1.228-8.391 2.65-12.596 3.942.057.151.113.304.173.457 2.103-.659 4.19-1.371 6.3-2.016 1.619-.451 3.485-.7 5.005.205 1.09.778 2.022 1.805 2.588 3.028.46 1.428-.17 3.173.988 4.346 7.834 9.2 15.653 18.414 23.472 27.624 2.19 2.648 4.551 5.16 6.582 7.937v1.981c-.672 2.108-1.11 4.284-1.795 6.385-.13.774-.706 1.344-1.398 1.642-30.452 11.336-60.893 22.704-91.343 34.046-6.767 2.445-13.421 5.204-20.295 7.343h-.819c-1.614-.726-3.472-1.52-4.188-3.28a24594.566 24594.566 0 0 0-20.688-46.689c-.37-.965-.26-2.038-.335-3.047 0-2.795-.09-5.594.037-8.385.277-1.293 1.549-2.108 2.693-2.592 3.136-.99 6.37-1.635 9.521-2.578.485-.144.92-.408 1.323-.706-2.971.442-5.805 1.484-8.72 2.174-1.104.287-2.229.556-3.213 1.154-.956.595-2.118.546-3.2.665C11.148 72.288 6.51 53.513 2 34.708v-.643c.422-1.156 1.009-2.613 2.408-2.798C38.976 22.477 73.59 13.87 108.14 5z" fill="#f8d820"/><g fill="#000"><path d="M85.231 16.38c1.663-.544 3.254.858 3.455 2.483 3.256 12.024 6.435 24.069 9.694 36.092.334 1.317.746 2.616 1.012 3.949.392 1.325-.467 2.75-1.67 3.299-1.15.467-2.352.783-3.54 1.14C78.76 68 63.336 72.658 47.922 77.344c-1.02.235-2.163.757-3.206.332-.899-.424-1.648-1.231-1.784-2.247-3.43-12.839-6.878-25.672-10.314-38.508-.39-1.65-1.176-3.305-.841-5.033.395-1.344 1.897-1.792 3.105-2.085 13.435-3.572 26.852-7.198 40.283-10.783 3.362-.848 6.682-1.892 10.066-2.642zm17.729 58.825c1.5-.517 2.627.814 3.473 1.829 6.86 9.04 13.698 18.101 20.568 27.136.516.75 1.088 1.561 1.016 2.525.003 1.114-.924 2.079-1.97 2.353-17.556 6.172-35.088 12.419-52.632 18.626-1.48.516-2.968 1.307-4.593 1.001-.854-.198-1.442-.964-1.892-1.663a18899.701 18899.701 0 0 0-17.806-30.86c-.405-.767-.538-1.752-.071-2.52.44-1.029 1.513-1.556 2.53-1.842 8.353-2.69 16.7-5.396 25.046-8.113 8.79-2.78 17.525-5.75 26.331-8.472zm16.048 1.748c.179.186.329.397.426.639a4.075 4.075 0 0 0 1.395 1.352c.22.083.44.172.666.248a3.24 3.24 0 0 0 1.779 0c.222-.077.441-.165.665-.248a4.09 4.09 0 0 0 1.396-1.352c.094-.244.243-.453.426-.639-.005.651.13 1.354-.252 1.933-.424.586-.943 1.137-1.57 1.508-.222.084-.441.173-.665.248a3.24 3.24 0 0 1-1.78 0c-.225-.077-.444-.164-.665-.248-.624-.372-1.154-.919-1.565-1.512-.042-.08-.124-.243-.164-.323-.195-.51-.074-1.075-.092-1.606zm9.508 2.257c.18.185.33.396.426.638a4.06 4.06 0 0 0 1.395 1.352c.22.084.44.17.666.248a3.24 3.24 0 0 0 1.78 0c.222-.077.44-.164.665-.248a4.104 4.104 0 0 0 1.395-1.352c.094-.242.244-.453.426-.638-.018.531.1 1.094-.09 1.605l-.166.324c-.413.593-.942 1.139-1.565 1.511-.224.084-.443.173-.666.248a3.196 3.196 0 0 1-1.779-.003 9.277 9.277 0 0 1-.466-.16c-.74-.325-1.297-.958-1.77-1.593-.383-.577-.247-1.281-.25-1.932zm-12.085 4.19c.132.153.27.314.364.5.268.597.803 1.04 1.322 1.42.26.113.525.226.798.321.568.16 1.211.16 1.782 0 .27-.095.533-.208.798-.32.519-.38 1.052-.824 1.321-1.422.094-.185.226-.346.364-.5-.012.53.097 1.092-.083 1.604-.344.732-.966 1.293-1.602 1.768-.265.114-.529.226-.798.32-.569.16-1.215.16-1.782 0a11.933 11.933 0 0 1-.798-.32 5.97 5.97 0 0 1-1.436-1.44c-.384-.578-.25-1.28-.25-1.931zm9.668 2.577c.179.185.33.396.425.64.308.515.772.939 1.262 1.282.261.113.526.226.798.32a3.298 3.298 0 0 0 1.782-.004c.155-.052.311-.106.466-.166l.327-.153c.497-.335.956-.766 1.267-1.28.093-.243.243-.452.425-.638-.004.651.133 1.354-.251 1.932a5.97 5.97 0 0 1-1.436 1.44c-.264.112-.528.225-.798.32a3.362 3.362 0 0 1-1.782 0 11.933 11.933 0 0 1-.798-.32 5.97 5.97 0 0 1-1.436-1.44c-.385-.578-.248-1.28-.251-1.933zm1.774 12.573c.194.174.311.403.368.656.25.334.55.706.988.777.356.148.78.153 1.137-.002.439-.068.737-.441.988-.775.057-.253.171-.484.368-.656-.008.484.09.994-.09 1.457-.175.57-.693 1.094-1.266 1.265-.357.151-.781.15-1.137-.002-.572-.17-1.093-.693-1.265-1.263-.183-.463-.084-.973-.09-1.457zm4.674 4.996c.193.174.31.403.367.656.25.333.55.706.988.777.356.151.779.148 1.138 0 .437-.073.735-.444.988-.777.058-.252.17-.484.367-.656-.008.483.09.994-.09 1.457-.174.57-.695 1.092-1.265 1.265a1.481 1.481 0 0 1-1.138-.002c-.572-.169-1.09-.693-1.265-1.262-.182-.464-.084-.975-.09-1.458zm-93.805 1.694c.195-.002.392-.002.588 0 .102.24.213.477.332.712.107.214.215.429.326.643.156.322.317.645.483.965.104.216.212.432.32.648.087.17.178.34.272.511.205.585.055 1.23.097 1.839h-.268c-.08-.197-.17-.389-.253-.58-.08-.153-.163-.303-.242-.453l-.154-.32a40.265 40.265 0 0 0-.324-.647 34.353 34.353 0 0 0-.324-.645c-.187-.388-.385-.77-.576-1.157-.338-.441-.291-.994-.277-1.516zm-4.996 1.934c.197-.002.395-.002.593 0 .08.193.168.385.255.578.113.211.222.427.329.645.163.32.325.643.48.968l.237.455c.039.08.114.243.153.324l.174.314c.363.616.14 1.357.197 2.035l-.263-.001c-.127-.308-.28-.605-.424-.903-.113-.214-.22-.428-.325-.643-.11-.216-.218-.432-.323-.646-.04-.08-.119-.239-.16-.317-.109-.216-.218-.432-.322-.648-.11-.215-.219-.43-.325-.643-.335-.444-.29-.996-.276-1.518z"/><path d="M46.642 107.965c.189.001.377.011.567.029.24.166.307.48.445.725.108.213.216.427.322.645.108.212.216.427.321.644.145.292.316.574.427.882.032.582.003 1.167.012 1.75l-.382.037c-.166.071-.336.134-.506.19-.213.076-.43.14-.64.22-.165.046-.327.1-.487.16a5.16 5.16 0 0 0-.485.158 4.877 4.877 0 0 0-.493.181c-.076.016-.224.052-.298.068a6.742 6.742 0 0 1-.497.179 7.349 7.349 0 0 1-1.097.325c.158.327.322.653.488.978.082.171.17.342.252.516l.162.318.162.322.157.322c.133.258.262.52.403.775.276.411.194.91.2 1.377l-.385.033c-.164.073-.33.137-.501.194-.16.056-.323.108-.485.155-.16.06-.321.114-.484.164a8.48 8.48 0 0 1-.483.16c-.16.06-.32.112-.484.162a8.581 8.581 0 0 1-.486.16c-.212.076-.427.142-.639.22-.169.052-.336.11-.5.178-.073.018-.22.051-.294.068-.242.178-.55.138-.83.125-.17-.143-.247-.358-.356-.541-.078-.176-.161-.347-.24-.52a21.928 21.928 0 0 1-.327-.642 48.05 48.05 0 0 1-.323-.645c-.11-.216-.217-.432-.319-.648-.08-.151-.161-.301-.242-.45-.09-.207-.183-.412-.267-.618-.168.04-.334.088-.496.145a5.666 5.666 0 0 0-.482.166 5 5 0 0 0-.484.161 5.16 5.16 0 0 0-.485.158 4.877 4.877 0 0 0-.493.18l-.298.07a7.65 7.65 0 0 1-.5.177c-.21.077-.427.142-.638.222a5.68 5.68 0 0 0-.487.154c-.228.069-.45.162-.665.264-.152.061-.305.12-.461.172a8.503 8.503 0 0 1-.49.14c-.11-.254-.226-.504-.351-.749-.084-.174-.171-.343-.255-.512l-.161-.32c-.04-.08-.12-.241-.158-.322-.134-.26-.261-.52-.395-.778-.156-.326-.317-.65-.491-.964-.307-.464-.178-1.03-.199-1.549h.587c.101.24.213.477.332.713.106.214.214.428.327.643.08.169.166.34.248.512.19.364.374.732.547 1.104.104.26.332.58.622.303a8.41 8.41 0 0 0 .48-.163c.163-.048.324-.101.483-.16.163-.05.326-.1.485-.159.166-.053.332-.114.494-.18.075-.016.224-.052.298-.07a6.13 6.13 0 0 1 .5-.177c.21-.079.426-.145.637-.22.165-.049.326-.102.487-.162.163-.047.324-.1.485-.158.168-.055.332-.114.495-.182l.297-.06c.272-.33.525.018.636.278l.144.327c.191.364.372.733.55 1.105.131.228.294.436.426.664.126.261.253.523.385.782.147.398.455 1.043.95.61.072-.017.219-.05.293-.065.163-.068.329-.128.498-.18.213-.078.427-.144.64-.22.164-.048.325-.103.486-.161.163-.047.326-.1.485-.156.17-.057.337-.12.502-.19l.44-.052a19.27 19.27 0 0 0-.332-.687c-.084-.172-.171-.341-.253-.51-.112-.215-.22-.43-.323-.645-.134-.26-.26-.52-.391-.777a15.37 15.37 0 0 0-.271-.512c-.177-.426-.089-.901-.094-1.348-.01-.298.35-.317.558-.383.16-.06.32-.113.485-.158.158-.063.32-.116.484-.161.157-.063.319-.116.483-.162.158-.062.32-.116.484-.16.157-.064.319-.117.483-.163.16-.06.322-.113.487-.16.21-.079.427-.143.64-.218.172-.058.343-.122.509-.196.1-.005.301-.016.401-.023a20.1 20.1 0 0 1-.303-.543c-.102-.22-.21-.437-.316-.653l-.172-.312c-.329-.52-.165-1.15-.197-1.726z"/></g></g></svg>